<svg version="1.1" id="Layer_1" xmlns="http://www.w3.org/2000/svg" xmlns:xlink="http://www.w3.org/1999/xlink" x="0px" y="0px"
	 width="100%" viewBox="0 0 1024 1024" enable-background="new 0 0 1024 1024" xml:space="preserve">
<path fill="#000000" opacity="1.000000" stroke="none" 
	d="
M419.218353,491.790161 
	C412.467682,486.358398 405.810242,485.531158 399.577179,489.118286 
	C392.830170,493.001160 390.059845,499.343536 391.771637,507.931702 
	C392.291107,510.537933 391.675812,512.411011 390.136841,514.350098 
	C367.044586,543.446228 343.981567,572.565552 320.892914,601.664551 
	C320.104492,602.658203 319.376434,603.952759 317.718353,603.505798 
	C316.493256,602.284607 317.309540,600.998413 317.528351,599.748108 
	C326.161133,550.421387 334.820038,501.099152 343.416626,451.766083 
	C345.644531,438.980988 347.785065,426.178406 349.745636,413.350189 
	C350.465546,408.639587 352.275116,406.672241 357.497711,406.774567 
	C375.487885,407.127045 393.490601,407.004913 411.485809,406.810913 
	C415.584900,406.766724 418.260437,408.129272 420.744263,411.356720 
	C451.533478,451.364197 482.435822,491.284668 513.311829,531.225342 
	C517.642944,536.827942 518.018616,536.928894 522.529114,531.762024 
	C548.494812,502.017761 574.412659,472.231812 600.335999,442.450592 
	C618.712158,421.339783 637.190552,400.316223 655.378845,379.044708 
	C662.638306,370.554565 670.242859,362.403625 677.837280,354.231842 
	C679.057922,352.918427 680.096619,351.319794 682.031616,350.700317 
	C684.151489,351.890747 683.260010,353.950623 683.270142,355.591309 
	C683.356812,369.588715 683.398438,383.587341 683.291687,397.584351 
	C683.264099,401.195221 683.630676,403.037842 688.237244,402.389740 
	C696.646240,401.206604 703.592163,407.618774 705.912781,417.780151 
	C707.705261,425.629028 703.380127,434.107819 695.887329,436.819916 
	C692.329651,438.107666 688.657837,439.488831 684.696838,438.595581 
	C681.973511,437.981354 681.049072,439.417236 681.002502,441.839508 
	C680.957581,444.171692 680.903381,446.504059 680.896790,448.836456 
	C680.817078,477.153290 680.491272,505.464752 680.737915,533.788208 
	C681.115112,577.105225 680.541992,620.430054 680.454224,663.751770 
	C680.434998,673.238525 680.675171,682.728577 680.964966,692.211914 
	C681.098938,696.594910 679.593933,698.419739 674.892517,698.379150 
	C651.731018,698.178894 628.566895,698.283936 605.403748,698.254761 
	C599.410706,698.247253 599.019287,697.846619 599.050110,691.582581 
	C599.207764,659.592651 599.487427,627.603027 599.535583,595.613037 
	C599.563599,576.960449 599.430969,558.302368 598.961975,539.657104 
	C598.804871,533.412109 600.633423,528.579224 604.604614,523.801025 
	C627.603577,496.128052 650.327332,468.226501 673.250977,440.490570 
	C675.664429,437.570557 676.911499,435.354736 673.804810,432.047363 
	C671.149109,429.220062 671.386414,425.001617 670.053711,420.791290 
	C663.286072,429.020844 656.879333,436.828491 650.454590,444.621277 
	C610.507019,493.074493 570.542603,541.513794 530.634216,589.999207 
	C527.996582,593.203796 525.501953,595.517883 521.029297,593.152283 
	C518.214294,591.663391 515.032898,592.266541 512.251892,593.355103 
	C508.402374,594.861816 506.079681,593.126038 503.558868,590.591125 
	C484.876312,571.804138 466.130280,553.080200 447.358276,534.382446 
	C440.275757,527.328003 433.107635,520.358276 425.899841,513.431885 
	C423.950775,511.558929 423.029541,509.742462 423.568176,506.854095 
	C424.590302,501.373016 423.559937,496.232727 419.218353,491.790161 
z"/>
<path fill="#000000" opacity="1.000000" stroke="none" 
	d="
M331.143494,610.164185 
	C354.244293,581.891418 377.128967,553.899658 399.983551,525.883362 
	C405.625549,518.967102 412.377808,518.610718 418.357239,524.957581 
	C442.584625,550.673645 467.442444,575.773438 492.586792,600.588440 
	C496.165039,604.119812 498.442871,607.546936 498.280792,613.071533 
	C497.982605,623.234802 506.308014,630.960571 516.408142,630.996033 
	C526.557983,631.031616 535.580200,623.097900 535.491272,613.158997 
	C535.441711,607.621399 537.428223,603.763550 540.869263,599.856506 
	C552.651245,586.478943 564.220276,572.913879 575.879456,559.427979 
	C576.505859,558.703491 577.005493,557.698914 578.434509,558.034973 
	C579.954224,559.417725 579.265869,561.364319 579.267822,563.075806 
	C579.315857,606.072693 579.247437,649.069824 579.417236,692.066162 
	C579.436157,696.858459 578.035339,698.419678 573.203857,698.343811 
	C557.208984,698.092529 541.206116,698.131714 525.209778,698.336426 
	C521.089111,698.389160 518.463257,696.980103 516.052917,693.692566 
	C485.017822,651.363525 453.876953,609.112000 422.739868,566.857910 
	C420.601898,563.956604 418.280701,561.190369 416.076050,558.401001 
	C413.322174,559.865417 413.605713,562.060120 413.289856,563.916748 
	C405.976990,606.904785 398.628357,649.887024 391.506256,692.906738 
	C390.799103,697.178162 389.071716,698.366028 384.997040,698.344238 
	C358.666260,698.203491 332.334473,698.267761 306.002991,698.246338 
	C299.621948,698.241150 299.412537,697.941650 300.471588,691.753723 
	C302.100067,682.239014 303.598511,672.700745 305.357300,663.210449 
	C305.979767,659.851807 305.255951,658.517456 301.596893,658.017883 
	C293.017456,656.846436 287.222534,651.860901 285.163422,643.381226 
	C283.440125,636.284363 285.689484,630.088318 291.486633,625.607300 
	C298.305267,620.336670 305.786957,619.206970 313.335876,623.952087 
	C316.759888,626.104431 318.852020,625.737244 321.187866,622.490723 
	C324.199005,618.305847 327.652985,614.439636 331.143494,610.164185 
z"/>
</svg>